<?xml version="1.0" encoding="utf-8"?>
<!-- Generator: Adobe Illustrator 25.2.3, SVG Export Plug-In . SVG Version: 6.00 Build 0)  -->
<svg version="1.1" id="OBJECT" xmlns="http://www.w3.org/2000/svg" xmlns:xlink="http://www.w3.org/1999/xlink" x="0px" y="0px"
	 viewBox="0 0 165.86 230.97" style="enable-background:new 0 0 165.86 230.97;" xml:space="preserve">
<style type="text/css">
	.st0{fill:#D81643;}
	.st1{opacity:0.5;fill:#9AE1E7;}
	.st2{fill:#B5B1AF;}
	.st3{opacity:0.5;fill:#B5B1AF;}
	.st4{fill:none;stroke:#4E5265;stroke-linecap:round;stroke-miterlimit:10;}
	.st5{fill:#9AE1E7;}
	.st6{opacity:0.5;fill:#4B4E60;}
	.st7{fill:#4E5265;}
	.st8{fill:#4B4E60;}
	.st9{fill:#434A59;}
	.st10{opacity:0.5;}
	.st11{fill:#37323F;}
	.st12{fill:#FFFFFF;}
</style>
<g>
	<g>
		<path class="st0" d="M65.54,174.58c0,6.18-6.05,8.32-13.87,8.32c-7.82,0-13.62-1.19-13.62-5.74c0-4.69,4.79-8.12,12.36-10.15
			C57.93,164.99,65.54,167.84,65.54,174.58z"/>
		<path class="st1" d="M65.53,174.58c0,6.17-6.04,8.32-13.87,8.32c-7.67,0-13.4-1.16-13.61-5.49c2.43,0.9,5.87,1.2,9.83,1.2
			c7.83,0,13.87-2.15,13.87-8.32c0-0.91-0.14-1.75-0.4-2.51C63.88,169.14,65.53,171.44,65.53,174.58z"/>
		<path class="st2" d="M49.82,142.46c-2.02,7.57-2.27,19-2.35,24.72c-0.34,4.46,7.57,3.7,9.5,0c0.93-1.78,0.37-21.62,0.42-23.96
			L49.82,142.46z"/>
		<path class="st3" d="M56.96,167.17c-1.61,3.11-7.44,4.14-9.07,1.75c2.02-0.24,4.16-1.32,5.03-3.02c0.86-1.63,0.45-18.61,0.42-23.1
			l4.04,0.4C57.33,145.55,57.89,165.4,56.96,167.17z"/>
		<path class="st4" d="M49.14,148.6c1.93-0.42,6,0.5,8.24,1.26 M57.72,155.74c-2.44-1.26-7.23-1.51-9.58-0.59 M57.63,161.46
			c-2.27-1.93-7.9-1.68-9.67-1.01 M47.63,165.83c2.02-1.01,7.23-1.09,9.75-0.42"/>
	</g>
	<path class="st5" d="M45.29,170.07c-2.51,0.9-4.53,2.86-5.91,5.09c-0.72,1.17,1.07,2.18,1.82,1.07c1.25-1.84,2.93-3.21,4.95-4.1
		C47.32,171.6,46.48,169.64,45.29,170.07z"/>
</g>
<g>
	<g>
		<path class="st0" d="M110.43,177.31c0,6.52-7.06,6.31-15.89,6.05c-7.82-0.22-10.59-1.14-10.09-7.31c0.4-4.93,1-7.44,8.83-7.44
			C101.1,168.6,110.43,170.2,110.43,177.31z"/>
		<path class="st1" d="M110.43,177.3c0,6.52-7.06,6.31-15.89,6.05c-7.03-0.19-9.99-0.96-10.14-5.6c1.58,1.15,4.29,1.45,8.37,1.56
			c8.83,0.25,15.89,0.46,15.89-6.05c0-0.18-0.01-0.36-0.03-0.54C109.76,173.9,110.43,175.41,110.43,177.3z"/>
		<path class="st2" d="M87.77,145.16c0.4,3.15,1.27,22.17,2.23,23.99c1.6,3.03,7.65,3.87,8.83,0.84c0.73-1.87-3.51-25.75-3.72-28.09
			L87.77,145.16z"/>
		<path class="st3" d="M98.83,169.99c-0.9,2.33-4.69,2.37-7.12,0.88c1.72,0.09,3.3-0.48,3.84-1.89c0.62-1.59-2.36-19.15-3.39-25.77
			l2.96-1.31C95.32,144.24,99.55,168.12,98.83,169.99z"/>
		<path class="st4" d="M88.32,150.99c2.41-1.02,5.96-1.64,7.92-0.74 M97.32,155.49c-1.94-0.72-6.87-0.38-8.66,0.71 M98.14,161.67
			c-1.78-0.64-7.69-0.06-9.21,1.01 M98.66,168.6c-2.07-0.82-6.22-0.59-8.66-0.13"/>
	</g>
	<path class="st5" d="M89.16,170.25c-1.41,0.36-2.22,2.64-2.61,3.86c-0.1,0.31-0.14,0.62-0.17,0.93c-0.01,0.13-0.01,0.65,0.02,0.26
		c-0.01,0.17,0.05,0.44,0.15,0.59c0.49,0.73,1.38,0.64,1.89,0c0,0,0-0.01,0-0.01c0.19-0.22,0.27-0.52,0.24-0.81
		c0.17-0.37,0.37-0.72,0.56-1.08c0.21-0.4,0.44-0.79,0.69-1.17c0.03-0.04,0.32-0.44,0.17-0.26c0.09-0.11,0.18-0.23,0.26-0.34
		c-0.21,0.28,0.1-0.11,0.15-0.22C90.96,171.08,90.22,169.98,89.16,170.25z"/>
</g>
<path class="st0" d="M111.66,138.41c-2.08,1.87-5.43,3.39-9.59,4.57c-14.71,4.2-39.64,4.22-54.78,0.45
	c-5.05-1.26-9.02-2.95-11.15-5.02c-7.3-7.12-2.98-40.87,0.21-60.13c0.27-1.68,0.54-3.25,0.79-4.67c19.32,2.93,59.71,2.8,73.66-1.09
	c0.33,1.69,0.71,3.62,1.08,5.72C115.34,97.39,119.99,130.91,111.66,138.41z"/>
<path class="st6" d="M102.96,142.98c-6.95,1.89-16.09,2.94-25.48,3.17c-2.53,0.06-5.08,0.06-7.62,0.01
	c-8.42-0.21-16.62-1.13-23.04-2.72c-4.12-19.04-3.96-66.36,1.44-75.95c0.6-1.05,1.51-1.98,2.67-2.77h45.25
	c1.93,0.83,3.45,1.76,4.43,2.77C107.15,74.31,107.61,125.13,102.96,142.98z"/>
<path class="st7" d="M101.6,142.98c-6.59,1.88-15.23,2.93-24.12,3.17c-2.53,0.06-5.08,0.06-7.62,0.01
	c-8.42-0.21-16.62-1.13-23.04-2.72c-4.12-19.04-3.96-66.36,1.44-75.95c0.6-1.05,1.51-1.98,2.67-2.77h44.21
	c1.84,0.83,3.29,1.76,4.22,2.77C105.59,74.31,106.03,125.13,101.6,142.98z"/>
<path class="st1" d="M111.76,77.61c-0.25-1.39-0.5-2.7-0.74-3.91c-1.06-5.49-1.85-8.99-1.85-8.99h-2.01
	c0.47,2.41,0.99,5.23,1.52,8.32c-15.53,3.38-53.12,3.37-71.55,0.58c-0.25,1.42-0.51,3-0.79,4.67c16.06,3.28,55.59,3.65,73.27,0.41
	c3.01,19.21,5.39,44.71-1.74,51.14c-2.08,1.87-5.43,3.39-9.59,4.57c-14.71,4.2-39.64,4.22-54.78,0.45
	c-4.66-1.16-8.4-2.69-10.62-4.56c0.62,3.7,1.65,6.55,3.26,8.11c2.13,2.08,6.09,3.76,11.15,5.02c15.14,3.76,40.07,3.74,54.78-0.45
	c4.17-1.18,7.52-2.7,9.59-4.57C120.08,130.82,115.24,96.64,111.76,77.61z"/>
<g>
	<g>
		<rect x="24.97" y="18.94" class="st2" width="4.2" height="13.79"/>
		<rect x="27.16" y="18.94" class="st3" width="2.02" height="13.78"/>
		<path class="st0" d="M33.38,14.31c0,3.57-2.9,6.47-6.47,6.47c-3.58,0-6.47-2.9-6.47-6.47c0-3.58,2.9-6.47,6.47-6.47
			C30.48,7.84,33.38,10.74,33.38,14.31z"/>
		<path class="st1" d="M33.38,14.31c0,3.58-2.91,6.48-6.48,6.48c-3.57,0-6.48-2.9-6.48-6.48c0-0.4,0.04-0.8,0.11-1.17
			c0.56,3.01,3.2,5.3,6.37,5.3c3.17,0,5.81-2.29,6.37-5.3C33.34,13.52,33.38,13.91,33.38,14.31z"/>
		<ellipse class="st8" cx="29.85" cy="46.18" rx="13.12" ry="19.17"/>
		<path class="st6" d="M42.92,48.66c-0.35,9.41-3.01,16.69-13.06,16.69c-10.94,0-13.11-8.58-13.11-19.17c0-3.07,0.18-5.96,0.72-8.54
			c-0.04,0.81-0.05,1.64-0.05,2.48c0,10.58,2.19,19.17,13.11,19.17C38.28,59.3,41.63,54.97,42.92,48.66z"/>
	</g>
	<path class="st5" d="M26.76,8.76c-3.96,0-3.96,6.15,0,6.15C30.72,14.91,30.72,8.76,26.76,8.76z"/>
	<path class="st9" d="M28.42,29.38c-2.45-1.14-5.63,1.21-7.27,2.87c-1.82,1.84-3.18,4.71-2.12,7.27c0.51,1.22,2.29,0.79,2.01-0.56
		c-0.39-1.94,1.15-3.76,2.44-4.99c0.73-0.7,1.6-1.3,2.53-1.69c0.79-0.33,1.63-0.31,2.41-0.67C29.27,31.22,29.26,29.77,28.42,29.38z"
		/>
</g>
<g>
	<g>
		<rect x="119.3" y="18.94" class="st2" width="4.2" height="13.79"/>
		<rect x="121.74" y="18.94" class="st3" width="1.77" height="13.78"/>
		<path class="st0" d="M115.1,14.31c0,3.57,2.9,6.47,6.47,6.47c3.58,0,6.47-2.9,6.47-6.47c0-3.58-2.9-6.47-6.47-6.47
			C117.99,7.84,115.1,10.74,115.1,14.31z"/>
		<path class="st1" d="M128.04,14.31c0,3.58-2.9,6.48-6.48,6.48c-2.94,0-5.42-1.96-6.2-4.65c1.17,1.59,3.06,2.63,5.2,2.63
			c3.58,0,6.48-2.9,6.48-6.48c0-0.63-0.09-1.23-0.26-1.81C127.58,11.56,128.04,12.88,128.04,14.31z"/>
		<ellipse class="st8" cx="118.63" cy="46.18" rx="13.12" ry="19.17"/>
		<path class="st6" d="M131.74,46.18c0,10.58-2.19,19.17-13.11,19.17c-7.57,0-10.95-4.12-12.3-10.16c1.97,2.88,5.11,4.61,10.03,4.61
			c10.93,0,13.11-8.58,13.11-19.17c0-3.26-0.2-6.31-0.81-9C131.08,35.14,131.74,40.36,131.74,46.18z"/>
	</g>
	<path class="st5" d="M120.41,8.76c-3.96,0-3.96,6.15,0,6.15C124.38,14.91,124.38,8.76,120.41,8.76z"/>
	<path class="st9" d="M119.4,28.41c-1.12,0.1-1.58,1.93-0.29,2.12c1.64,0.24,2.94,0.73,4.1,1.95c1.13,1.2,1.22,2.76,1.81,4.2
		c0.4,0.97,1.89,1.19,2.2,0C128.34,32.38,123.5,28.03,119.4,28.41z"/>
</g>
<g>
	<g>
		<path class="st2" d="M30.75,91.95c-4.71,6.47-11.07,21.76-11.1,31.27l-5.72-1.26c-0.92-7.26,6.05-27.76,12.02-33.71L30.75,91.95z"
			/>
		<path class="st3" d="M30.75,91.95c-4.7,6.48-11.07,21.76-11.1,31.27l-5.71-1.26c0-0.03-0.01-0.06-0.01-0.09l2.69,0.6
			c0.03-9.51,6.4-24.8,11.1-31.27l-2.6-2.01c0.27-0.34,0.55-0.66,0.84-0.94L30.75,91.95z"/>
		<path class="st9" d="M42.86,87.04c0,6.89-5.59,12.48-12.48,12.48s-12.48-5.59-12.48-12.48c0-6.9,5.59-12.48,12.48-12.48
			S42.86,80.14,42.86,87.04z"/>
		<path class="st6" d="M42.85,87.04c0,6.89-5.59,12.48-12.48,12.48c-6.66,0-12.1-5.21-12.47-11.75c2.04,4.13,6.29,6.96,11.21,6.96
			c6.89,0,12.48-5.59,12.48-12.49c0-0.24-0.01-0.48-0.03-0.73C42.39,83.18,42.85,85.05,42.85,87.04z"/>
		<g>
			<path class="st9" d="M26.6,126.52c-1.35-1.17-4.22-1.02-4.22-1.02l0.05,2.58C24.36,129.37,29.65,129.15,26.6,126.52z"/>
			<g>
				<path class="st9" d="M20.17,131.8l-2.3,0.32c-0.36,1.19-1.41,6.42,0.46,7.01C20.12,139.69,20.58,133.06,20.17,131.8z"/>
				<path class="st9" d="M15.63,132.37l-1.45-0.63c-0.67,0.95-4.45,7.56-1.96,7.27C14.36,138.76,16.12,134.19,15.63,132.37z"/>
				<path class="st9" d="M11.78,130.73l-1.52-0.96c-1.07,0.43-5.92,4.59-3.66,5.2C8.22,135.4,11.28,132.43,11.78,130.73z"/>
				<path class="st9" d="M8.82,128.5l-1.42-1.67c-1.44,0.33-3.2,1.38-4.07,2.58c-1.27,1.75-0.49,2.52,1.39,1.72
					C5.56,130.78,8.82,128.5,8.82,128.5z"/>
			</g>
			<path class="st0" d="M23.58,129.15c-0.91,2.91-5.32,4.12-9.86,2.7c-4.54-1.41-7.48-4.92-6.57-7.82c0.91-2.91,5.32-4.12,9.86-2.7
				C21.55,122.74,24.49,126.24,23.58,129.15z"/>
			<path class="st1" d="M23.59,129.15c-0.91,2.91-5.32,4.11-9.85,2.71c-4.06-1.27-6.83-4.19-6.73-6.87
				c1.08,1.76,3.22,3.34,5.93,4.19c4.53,1.41,8.94,0.2,9.85-2.71c0.1-0.31,0.15-0.63,0.15-0.96
				C23.68,126.71,23.95,127.97,23.59,129.15z"/>
		</g>
	</g>
	<path class="st4" d="M14.78,117.26c1.71-0.75,3.88-0.61,5.28,0.6 M21.11,113.34c-1.34-1.3-3.79-1.56-5.88-0.75 M22.47,109.12
		c-1.37-1.04-3.92-2.07-5.73-1.21 M23.52,104.14c-0.92-1.19-3.34-2.48-4.82-1.96"/>
	<path class="st9" d="M27.74,77.14c-0.05-0.01-0.11-0.02-0.16-0.03c-0.86-0.14-1.61-0.14-2.39,0.31c-0.94,0.55-1.53,1.58-1.53,2.67
		c0,0.82,0.33,1.61,0.91,2.19c0.84,0.84,1.89,0.98,3.01,0.8c0.05-0.01,0.11-0.02,0.16-0.03c1.33-0.22,2.25-1.7,2.25-2.96
		C29.99,78.84,29.07,77.36,27.74,77.14z"/>
	<path class="st5" d="M17.59,125.52c-2.44,0.2-5.04,0.14-6.79-1.81c-0.96-1.08-2.43,0.47-1.56,1.56c2.04,2.55,5.28,2.97,8.35,2.73
		C19.17,127.87,19.18,125.39,17.59,125.52z"/>
</g>
<g>
	<g>
		<path class="st2" d="M120.75,81.49c7.3-3.29,20.41-13.4,25.15-21.65l4.34,3.93c-2.8,6.76-19.02,21.1-27.16,23.31L120.75,81.49z"/>
		<path class="st3" d="M149.99,64.32c0.1-0.19,0.18-0.37,0.26-0.55l-4.34-3.93c-4.74,8.25-17.85,18.36-25.15,21.65l2.32,5.59
			c0.26-0.07,0.54-0.15,0.81-0.26l-1.13-2.74c7.3-3.29,20.41-13.4,25.15-21.65L149.99,64.32z"/>
	</g>
	<path class="st4" d="M135.1,79.03c-1.89,0.16-2.59-2.93-2.38-4.67 M136.13,71.43c-0.14,1.8,1.66,4.68,3.49,4.26 M139.44,68.09
		c0.57,1.65,1.93,3.86,3.79,3.74 M142.98,64.02c0.71,1.82,2.04,3.61,4.07,3.55"/>
	<g>
		<path class="st9" d="M124.31,99.26c6.4-2.56,9.52-9.83,6.96-16.23c-2.56-6.4-9.83-9.52-16.23-6.96c-6.4,2.56-9.52,9.83-6.96,16.23
			C110.64,98.7,117.9,101.82,124.31,99.26z"/>
		<path class="st6" d="M131.81,90.6c-1.62,6.7-8.36,10.82-15.06,9.2c-4.69-1.13-8.11-4.76-9.2-9.13c1.68,2.29,4.17,4.03,7.15,4.75
			c6.7,1.62,13.44-2.5,15.06-9.21c0.49-2.02,0.46-4.04-0.01-5.93C131.83,83.15,132.71,86.87,131.81,90.6z"/>
		<path class="st9" d="M116.6,80.4c0.01,0.05,0.02,0.11,0.03,0.16c0.19,0.85,0.47,1.55,1.18,2.1c0.86,0.67,2.04,0.84,3.05,0.43
			c0.76-0.3,1.37-0.9,1.7-1.66c0.47-1.1,0.21-2.12-0.38-3.09c-0.03-0.05-0.06-0.09-0.08-0.14c-0.7-1.15-2.42-1.46-3.59-0.99
			C117.35,77.68,116.31,79.09,116.6,80.4z"/>
	</g>
	<g>
		<g>
			<path class="st9" d="M141.79,51.47c0.3,1.76,2.61,3.46,2.61,3.46l1.6-2.03C145.34,50.69,141.11,47.5,141.79,51.47z"/>
			<g>
				<path class="st9" d="M157.45,61.57l-0.56-2.25c0.97-0.78,5.44-3.69,6.68-2.17C164.75,58.59,158.77,61.48,157.45,61.57z"/>
				<path class="st9" d="M156.29,57.15l-1.12-1.12c0.64-0.98,5.37-6.94,6.03-4.52C161.76,53.6,158.16,56.92,156.29,57.15z"/>
				<path class="st9" d="M153.34,54.18l-1.45-1.05c0-1.16,2.06-7.2,3.47-5.33C156.35,49.13,154.73,53.08,153.34,54.18z"/>
				<path class="st9" d="M150.17,52.26l-2.08-0.7c-0.23-1.47,0.1-3.48,0.89-4.73c1.15-1.83,2.16-1.39,2.11,0.65
					C151.07,48.39,150.17,52.26,150.17,52.26z"/>
			</g>
			<path class="st0" d="M156.29,65.77c2.38-1.93,1.86-6.52-1.16-10.23c-3.02-3.71-7.4-5.16-9.78-3.22
				c-2.38,1.94-1.86,6.52,1.16,10.23C149.54,66.27,153.91,67.71,156.29,65.77z"/>
			<path class="st1" d="M155.14,55.54c3.01,3.72,3.54,8.3,1.16,10.23c0.23-2.18-0.68-4.92-2.61-7.32c-3.02-3.72-7.4-5.16-9.78-3.22
				c0.13-1.2,0.6-2.22,1.46-2.91C147.74,50.38,152.11,51.82,155.14,55.54z"/>
		</g>
		<path class="st5" d="M147.76,58.68c2.29,0.56,3.46,2.43,4.27,4.5c0.44,1.12,2.41,0.69,2.11-0.53c-0.8-3.17-2.75-5.59-6.01-6.37
			C146.59,55.92,146.26,58.31,147.76,58.68z"/>
	</g>
</g>
<g>
	<path class="st0" d="M118.05,72.13c7.16-7.16,10.05-69.19-44.06-69.19c-54.11,0-50.09,62.73-44.06,69.19
		C35.96,78.59,110.88,79.3,118.05,72.13z"/>
	<path class="st1" d="M118.04,72.13c-7.16,7.16-82.08,6.47-88.11,0c-0.75-0.8-1.45-2.44-2.03-4.72c9.82,5.92,80.43,6.37,87.37-0.57
		c4.04-4.04,6.71-25.43-1.36-43.38C125.28,42.21,122.48,67.69,118.04,72.13z"/>
	<path class="st5" d="M68.12,6.34C51.33,4.76,30.57,24.12,29.94,43.28c-0.13,3.96,5.11,3.84,5.41,0
		c1.32-16.84,18.71-30.32,32.77-30.65C71.77,12.54,71.67,6.67,68.12,6.34z"/>
	<path class="st5" d="M77.87,5.92c-0.34-0.02-0.67-0.04-1.01-0.04c-1.69-0.04-3.1,1.44-3.1,3.1s1.41,3.14,3.1,3.1
		c0.34-0.01,0.67-0.02,1.01-0.04c1.66-0.12,3.06-1.3,3.06-3.06C80.93,7.22,79.53,6.03,77.87,5.92z"/>
</g>
<g class="st10">
	<path class="st8" d="M58.73,44.2c-2.51,0-4.54,2.03-4.54,4.54c0,2.51,2.03,4.54,4.54,4.54c2.51,0,4.54-2.03,4.54-4.54
		C63.27,46.23,61.23,44.2,58.73,44.2z"/>
	<path class="st8" d="M91.77,44.2c-2.51,0-4.54,2.03-4.54,4.54c0,2.51,2.03,4.54,4.54,4.54s4.54-2.03,4.54-4.54
		C96.31,46.23,94.27,44.2,91.77,44.2z"/>
	<path class="st8" d="M83.58,53.8c-0.55-0.08-1.06,0.31-1.14,0.86c-0.46,3.26-4,4.54-7.09,4.34c-2.97-0.18-5.98-1.72-6.03-4.73
		c-0.01-0.56-0.48-0.96-1.02-0.99c-0.56,0.01-1,0.47-0.99,1.02c0.07,4.28,4.15,6.47,7.92,6.71c0.24,0.01,0.48,0.02,0.72,0.02
		c3.81,0,7.9-1.84,8.49-6.1C84.52,54.38,84.14,53.87,83.58,53.8z"/>
</g>
<g>
	<g>
		<path class="st11" d="M57.72,43.53c-2.51,0-4.54,2.03-4.54,4.54c0,2.51,2.03,4.54,4.54,4.54c2.51,0,4.54-2.03,4.54-4.54
			C62.26,45.56,60.23,43.53,57.72,43.53z"/>
		<path class="st11" d="M95.3,48.07c0,2.51-2.03,4.54-4.54,4.54c-2.51,0-4.54-2.03-4.54-4.54c0-2.51,2.03-4.54,4.54-4.54
			C93.27,43.53,95.3,45.56,95.3,48.07z"/>
		<g>
			<path class="st11" d="M74.94,60.36c-0.24,0-0.48-0.01-0.72-0.02c-3.77-0.23-7.86-2.43-7.92-6.71c-0.01-0.56,0.44-1.02,0.99-1.02
				c0.55,0.03,1.02,0.44,1.02,0.99c0.05,3.01,3.06,4.54,6.03,4.73c3.1,0.19,6.64-1.09,7.09-4.34c0.08-0.55,0.59-0.94,1.14-0.86
				c0.55,0.08,0.94,0.59,0.86,1.14C82.84,58.52,78.75,60.36,74.94,60.36z"/>
		</g>
	</g>
	<path class="st12" d="M57.7,50.24c-2.48,0-2.48-3.85,0-3.85C60.18,46.4,60.18,50.24,57.7,50.24z M90.99,46.4
		c-2.48,0-2.48,3.85,0,3.85C93.47,50.24,93.47,46.4,90.99,46.4z"/>
</g>
<g>
	<path class="st6" d="M49.02,94.1c0,0.87-0.73,1.6-1.6,1.6c-0.87,0-1.6-0.73-1.6-1.6c0-0.87,0.73-1.6,1.6-1.6
		C48.29,92.5,49.02,93.23,49.02,94.1z M46.91,110.03c-0.94,0-1.73,0.79-1.73,1.73c0,0.94,0.79,1.73,1.73,1.73
		c0.94,0,1.73-0.79,1.73-1.73C48.64,110.81,47.85,110.03,46.91,110.03z M103.2,91.74c0-0.89-0.75-1.64-1.64-1.64
		c-0.89,0-1.64,0.75-1.64,1.64c0,0.65,0.47,1.35,1.11,1.57c0.52,0.39,1.36,0.29,1.68-0.32c0.04-0.07,0.26-0.39,0-0.09
		C103.01,92.56,103.2,92.21,103.2,91.74z M102.4,110.79c-1.89,0-1.89,2.92,0,2.92C104.29,113.72,104.29,110.79,102.4,110.79z"/>
	<path class="st0" d="M48.7,93.72c0,0.87-0.73,1.6-1.6,1.6c-0.87,0-1.6-0.73-1.6-1.6c0-0.87,0.73-1.6,1.6-1.6
		C47.97,92.12,48.7,92.85,48.7,93.72z M46.6,109.65c-0.94,0-1.73,0.79-1.73,1.73c0,0.94,0.79,1.73,1.73,1.73
		c0.94,0,1.73-0.79,1.73-1.73C48.32,110.43,47.54,109.65,46.6,109.65z M102.88,91.37c0-0.89-0.75-1.64-1.64-1.64
		c-0.89,0-1.64,0.75-1.64,1.64c0,0.65,0.47,1.35,1.11,1.57c0.52,0.39,1.36,0.29,1.68-0.32c0.04-0.07,0.26-0.39,0-0.09
		C102.69,92.18,102.88,91.83,102.88,91.37z M102.08,110.42c-1.89,0-1.89,2.92,0,2.92C103.97,113.34,103.97,110.42,102.08,110.42z"/>
	<path class="st5" d="M46.24,92.58c-0.01,0.01-0.02,0.02-0.03,0.02c-0.4,0.35-0.27,1.03,0.17,1.29c0.54,0.32,1.23-0.09,1.23-0.71
		c0-0.01,0-0.02,0-0.03C47.62,92.41,46.75,92.14,46.24,92.58z"/>
	<path class="st5" d="M100.4,90.25c-0.01,0.01-0.02,0.01-0.03,0.02c-0.4,0.35-0.27,1.03,0.17,1.29c0.54,0.32,1.23-0.09,1.23-0.71
		c0-0.01,0-0.02,0-0.03C101.78,90.08,100.91,89.81,100.4,90.25z"/>
	<path class="st5" d="M101.29,110.8c-0.01,0.01-0.02,0.01-0.03,0.02c-0.4,0.35-0.27,1.03,0.17,1.29c0.54,0.32,1.23-0.09,1.23-0.71
		c0-0.01,0-0.02,0-0.03C102.66,110.63,101.8,110.36,101.29,110.8z"/>
	<path class="st5" d="M45.74,110.3c-0.01,0.01-0.02,0.01-0.03,0.02c-0.4,0.35-0.27,1.03,0.17,1.29c0.54,0.32,1.23-0.09,1.23-0.71
		c0-0.01,0-0.02,0-0.03C47.11,110.13,46.25,109.86,45.74,110.3z"/>
</g>
<g>
	<g>
		<g>
			<path class="st0" d="M64.23,111.21c0,3.16-2.56,5.72-5.72,5.72c-3.16,0-5.72-2.56-5.72-5.72c0-3.16,2.56-5.72,5.72-5.72
				C61.67,105.49,64.23,108.05,64.23,111.21z"/>
			<path class="st0" d="M95.68,111.21c0,3.16-2.56,5.72-5.72,5.72c-3.16,0-5.72-2.56-5.72-5.72c0-3.16,2.56-5.72,5.72-5.72
				C93.12,105.49,95.68,108.05,95.68,111.21z"/>
		</g>
	</g>
	<path class="st1" d="M64.23,111.2c0,3.16-2.56,5.72-5.72,5.72c-2.83,0-5.18-2.06-5.63-4.76c1,1.64,2.8,2.74,4.87,2.74
		c3.16,0,5.72-2.56,5.72-5.72c0-0.32-0.03-0.65-0.08-0.95C63.93,109.09,64.23,110.11,64.23,111.2z M94.83,108.22
		c0.06,0.31,0.09,0.64,0.09,0.97c0,3.16-2.56,5.72-5.72,5.72c-2.07,0-3.88-1.1-4.88-2.75c0.44,2.7,2.8,4.77,5.64,4.77
		c3.16,0,5.72-2.56,5.72-5.72C95.68,110.1,95.38,109.08,94.83,108.22z"/>
	<path class="st5" d="M55.73,107.46c-0.02,0.01-0.03,0.03-0.05,0.04c-0.75,0.65-0.49,1.91,0.31,2.38c1,0.58,2.27-0.16,2.28-1.31
		c0-0.02,0-0.04,0-0.06C58.28,107.14,56.68,106.64,55.73,107.46z"/>
	<path class="st5" d="M87.96,107.35c-1.77,0-1.77,2.75,0,2.75C89.73,110.1,89.73,107.35,87.96,107.35z"/>
</g>
<path class="st5" d="M41.49,124.68c-1.7-7.38-0.49-14.91-0.42-22.39c0.04-3.94-6.04-3.93-6.1,0c-0.12,8-1.55,16.16,0.59,24.02
	C36.6,130.16,42.39,128.54,41.49,124.68z"/>
<g>
	<path class="st12" d="M11.78,224.63c-1.09,2.57-1.95,3.08-4.72,2.63l-0.38-0.07c-2.6-0.38-3.04-1.2-1.71-3.49l3.76-6.6
		c-3.66-1.75-5.44-4.55-5.44-7.39c0-4.28,4.28-8.45,12.9-8.45c1.06,0,2.29,0.07,3.52,0.17c2.57,0.24,3.39,1.16,3.39,3.73l0.07,19.26
		c0,2.74-0.68,3.42-3.42,3.42h-0.38c-2.7,0-3.42-0.68-3.25-3.42l0.31-5.65l-2.05-0.27L11.78,224.63z M16.64,214.02l0.34-6.47
		c-0.38-0.1-0.79-0.07-1.16-0.07c-2.98,0-4.45,1.5-4.45,3.04C11.37,212.24,13.15,214.02,16.64,214.02z"/>
	<path class="st12" d="M48.76,224.25c0.34,2.67-0.14,3.46-2.91,3.63l-1.09,0.07c-2.74,0.17-3.52-0.45-3.69-3.18l-1.44-19.33
		c-0.17-2.63,0.51-3.52,3.04-4.07c1.68-0.34,3.35-0.51,5.03-0.51c9.13,0,13.99,3.63,13.99,10.09c0,4.65-4.45,9.31-13.51,9.31
		L48.76,224.25z M47.29,214.19c2.94-0.55,5.95-1.95,5.95-4.31c0-2.19-1.68-3.04-3.73-3.04c-1.06,0-2.12,0.21-3.18,0.65L47.29,214.19
		z"/>
	<path class="st12" d="M89.09,214.54c0,7.94-6.36,12.9-13.48,12.9c-6.84,0-12.59-5.41-12.59-12.66c0-7.49,4.82-13.65,13.03-13.65
		C84.44,201.13,89.09,207.56,89.09,214.54z M81.15,214.84c0-2.67-1.75-5.51-5.03-5.51s-5.47,2.43-5.47,5.99
		c0,2.87,1.75,5.68,5.51,5.68C79.17,221,81.15,218.5,81.15,214.84z"/>
	<path class="st12" d="M91.27,205.27c-0.1-2.77,0.55-3.39,3.28-3.39l13.55,0.07c2.36,0,2.84,0.65,2.67,2.98
		c-0.17,2.39-0.82,2.87-3.15,2.87l-8.76-0.17l-0.1,3.39c1.88-0.41,3.52-0.58,4.99-0.58c7.73,0,9.65,3.59,9.65,6.84
		c0,6.02-5.47,10.5-15.63,10.5c-0.96,0-1.92-0.07-2.87-0.17c-2.12-0.27-2.74-0.92-2.84-3.11L91.27,205.27z M105.1,218.4
		c0-1.37-1.57-1.85-3.25-1.85c-1.2,0-2.43,0.21-3.25,0.58l-0.14,4.04c0.75,0.21,1.57,0.31,2.43,0.31
		C103.08,221.48,105.1,220.59,105.1,218.4z"/>
	<path class="st12" d="M140.81,214.54c0,7.94-6.36,12.9-13.48,12.9c-6.84,0-12.59-5.41-12.59-12.66c0-7.49,4.82-13.65,13.03-13.65
		C136.16,201.13,140.81,207.56,140.81,214.54z M132.87,214.84c0-2.67-1.74-5.51-5.03-5.51c-3.28,0-5.47,2.43-5.47,5.99
		c0,2.87,1.74,5.68,5.51,5.68C130.89,221,132.87,218.5,132.87,214.84z"/>
	<path class="st12" d="M155.89,224.22c0.1,2.77-0.51,3.46-3.25,3.83l-0.65,0.07c-2.63,0.38-3.39-0.34-3.28-3.01l0.41-15.19
		l-3.15,0.21c-2.77,0.17-3.42-0.44-3.42-3.18l0.03-2.29c0-2.7,0.72-3.39,3.42-3.22l13.89,0.82c2.6,0.17,3.22,0.82,3.11,3.49
		c-0.1,2.6-0.68,3.25-3.28,3.42l-4.38,0.31L155.89,224.22z"/>
</g>
</svg>
